<?xml version="1.0" encoding="UTF-8" standalone="no"?>
<!DOCTYPE svg PUBLIC "-//W3C//DTD SVG 1.1//EN" "http://www.w3.org/Graphics/SVG/1.1/DTD/svg11.dtd">
<svg version="1.1" xmlns="http://www.w3.org/2000/svg" xmlns:xlink="http://www.w3.org/1999/xlink" preserveAspectRatio="xMidYMid meet" viewBox="0 0 640 640" width="640" height="640"><defs><path d="M0 0L640 0L640 640L0 640L0 0Z" id="a4MOaf5nT0"></path><path d="M320 0C143.27 0 0 143.27 0 320C0 496.73 143.27 640 320 640C496.73 640 640 496.73 640 320C640 143.27 496.73 0 320 0Z" id="g3ChvK9uW0"></path><path d="M638.91 293.6C625.45 280.14 558.18 212.86 437.07 91.76L427.43 207.7L332.02 222.67L418.96 309.61L413.66 373.35L292.81 252.5L113.46 312.5L153.3 352.33L113.46 354.93L173.34 414.8L85.62 468.01C184.19 566.57 238.94 621.32 249.89 632.28C272.46 637.32 295.91 640 320 640C496.73 640 640 496.73 640 320C640 311.11 639.62 302.31 638.91 293.6Z" id="aQOz4e8aD"></path><path d="M412.83 91.76L437.08 91.76L437.08 364.09L412.83 364.09L412.83 91.76Z" id="b1DuNoLeci"></path><path d="M425.3 91.76L437.07 91.76L437.07 364.09L425.3 364.09L425.3 91.76Z" id="d2me7N56ta"></path><path d="M494.45 431.16L355.46 431.16L339.3 204.89L510.61 204.89L494.45 431.16Z" id="f1eRBmm1rn"></path><path d="M510.61 204.89L425.3 204.89L425.3 431.16L494.45 431.16L510.61 204.89Z" id="c5SmYl0jYL"></path><path d="M332.03 193.58L517.88 193.58L517.88 222.67L332.03 222.67L332.03 193.58Z" id="b3dcjPBbjR"></path><path d="M425.3 193.58L517.88 193.58L517.88 222.67L425.3 222.67L425.3 193.58Z" id="b22rbl3We"></path><path d="M134.25 410C120.17 410 108.75 398.58 108.75 384.5C108.75 371.66 119.16 361.25 132 361.25C147.23 361.25 269.02 361.25 284.25 361.25C297.09 361.25 307.5 371.66 307.5 384.5C307.5 398.58 296.08 410 282 410C252.45 410 149.02 410 134.25 410Z" id="fyIUQ6gvo"></path><path d="M208.13 361.25L208.13 410C252.45 410 277.08 410 282 410C296.08 410 307.5 398.58 307.5 384.5C307.5 371.66 297.09 361.25 284.25 361.25C274.1 361.25 248.72 361.25 208.13 361.25Z" id="b1LGuswlIo"></path><path d="M85.63 395.97L554.38 395.97L554.38 468.01L85.63 468.01L85.63 395.97Z" id="e2fqOsQaYR"></path><path d="M320 395.97L554.38 395.97L554.38 468.01L320 468.01L320 395.97Z" id="c4JNtpL4ac"></path><path d="M127.5 361.25C117.15 361.25 108.75 352.86 108.75 342.5C108.75 332.15 117.15 323.75 127.5 323.75C143.63 323.75 272.63 323.75 288.75 323.75C299.11 323.75 307.5 332.15 307.5 342.5C307.5 352.86 299.11 361.25 288.75 361.25C256.5 361.25 143.63 361.25 127.5 361.25Z" id="agakq4SI4"></path><path d="M281.25 323.75L208.13 342.5L127.5 323.75L207.5 307.5L281.25 323.75Z" id="d5h541mho"></path><path d="M208.13 323.75L208.13 361.25C256.5 361.25 283.38 361.25 288.75 361.25C299.11 361.25 307.5 352.86 307.5 342.5C307.5 332.15 299.11 323.75 288.75 323.75C278 323.75 251.13 323.75 208.13 323.75Z" id="a4DaYjlK4"></path><path d="M208.13 307.92L208.13 342.5L281.25 323.75L208.13 307.92Z" id="a2galozAk"></path><path d="M135.01 323.75C120.51 323.75 108.75 312 108.75 297.5C108.75 255.39 142.89 221.25 185 221.25C189.62 221.25 226.63 221.25 231.26 221.25C273.36 221.25 307.5 255.39 307.5 297.5C307.5 312 295.75 323.75 281.25 323.75C252 323.75 149.63 323.75 135.01 323.75Z" id="fKYzsOxWN"></path><path d="M208.13 221.25L208.13 323.75C252 323.75 276.37 323.75 281.25 323.75C295.75 323.75 307.5 312 307.5 297.5C307.5 255.39 273.36 221.25 231.26 221.25C228.17 221.25 220.46 221.25 208.13 221.25Z" id="c3AXMnfj1G"></path><path d="M208.13 230.42C202.6 230.42 198.13 234.89 198.13 240.42C198.13 245.94 202.6 250.42 208.13 250.42C213.65 250.42 218.13 245.94 218.13 240.42C218.13 234.89 213.65 230.42 208.13 230.42Z" id="aBwkrqU8C"></path><path d="M208.13 277.08C202.6 277.08 198.13 281.56 198.13 287.08C198.13 292.61 202.6 297.08 208.13 297.08C213.65 297.08 218.13 292.61 218.13 287.08C218.13 281.56 213.65 277.08 208.13 277.08Z" id="l3wtrK8CXN"></path><path d="M208.13 250.42C213.65 250.42 218.13 245.94 218.13 240.42C218.13 234.89 213.65 230.42 208.13 230.42C208.13 234.42 208.13 248.42 208.13 250.42Z" id="cIoHAHzz5"></path><path d="M208.13 297.08C213.65 297.08 218.13 292.61 218.13 287.08C218.13 281.56 213.65 277.08 208.13 277.08C208.13 281.08 208.13 295.08 208.13 297.08Z" id="aUjxHWGgP"></path><path d="M247.6 252.5C242.07 252.5 237.6 256.98 237.6 262.5C237.6 268.02 242.07 272.5 247.6 272.5C253.12 272.5 257.6 268.02 257.6 262.5C257.6 256.98 253.12 252.5 247.6 252.5Z" id="a3QOn3r3Bq"></path><path d="M168.65 252.5C163.13 252.5 158.65 256.98 158.65 262.5C158.65 268.02 163.13 272.5 168.65 272.5C174.18 272.5 178.65 268.02 178.65 262.5C178.65 256.98 174.18 252.5 168.65 252.5Z" id="a5OsEEdEEg"></path></defs><g><g><g><use xlink:href="#a4MOaf5nT0" opacity="1" fill="#026b11" fill-opacity="1"></use></g><g><use xlink:href="#g3ChvK9uW0" opacity="1" fill="#026b11" fill-opacity="1"></use><g><use xlink:href="#g3ChvK9uW0" opacity="1" fill-opacity="0" stroke="#000000" stroke-width="1" stroke-opacity="0"></use></g></g><g><use xlink:href="#aQOz4e8aD" opacity="1" fill="#0a4700" fill-opacity="1"></use><g><use xlink:href="#aQOz4e8aD" opacity="1" fill-opacity="0" stroke="#000000" stroke-width="1" stroke-opacity="0"></use></g></g><g><use xlink:href="#b1DuNoLeci" opacity="1" fill="#ffffff" fill-opacity="1"></use><g><use xlink:href="#b1DuNoLeci" opacity="1" fill-opacity="0" stroke="#000000" stroke-width="1" stroke-opacity="0"></use></g></g><g><use xlink:href="#d2me7N56ta" opacity="1" fill="#e9edf5" fill-opacity="1"></use><g><use xlink:href="#d2me7N56ta" opacity="1" fill-opacity="0" stroke="#000000" stroke-width="1" stroke-opacity="0"></use></g></g><g><use xlink:href="#f1eRBmm1rn" opacity="1" fill="#ff432e" fill-opacity="1"></use><g><use xlink:href="#f1eRBmm1rn" opacity="1" fill-opacity="0" stroke="#000000" stroke-width="1" stroke-opacity="0"></use></g></g><g><use xlink:href="#c5SmYl0jYL" opacity="1" fill="#f24500" fill-opacity="1"></use><g><use xlink:href="#c5SmYl0jYL" opacity="1" fill-opacity="0" stroke="#000000" stroke-width="1" stroke-opacity="0"></use></g></g><g><use xlink:href="#b3dcjPBbjR" opacity="1" fill="#ffde52" fill-opacity="1"></use><g><use xlink:href="#b3dcjPBbjR" opacity="1" fill-opacity="0" stroke="#000000" stroke-width="1" stroke-opacity="0"></use></g></g><g><use xlink:href="#b22rbl3We" opacity="1" fill="#ffd400" fill-opacity="1"></use><g><use xlink:href="#b22rbl3We" opacity="1" fill-opacity="0" stroke="#000000" stroke-width="1" stroke-opacity="0"></use></g></g><g><use xlink:href="#fyIUQ6gvo" opacity="1" fill="#feec65" fill-opacity="1"></use><g><use xlink:href="#fyIUQ6gvo" opacity="1" fill-opacity="0" stroke="#000000" stroke-width="1" stroke-opacity="0"></use></g></g><g><use xlink:href="#b1LGuswlIo" opacity="1" fill="#fcca29" fill-opacity="1"></use><g><use xlink:href="#b1LGuswlIo" opacity="1" fill-opacity="0" stroke="#000000" stroke-width="1" stroke-opacity="0"></use></g></g><g><use xlink:href="#e2fqOsQaYR" opacity="1" fill="#854d28" fill-opacity="1"></use><g><use xlink:href="#e2fqOsQaYR" opacity="1" fill-opacity="0" stroke="#000000" stroke-width="1" stroke-opacity="0"></use></g></g><g><use xlink:href="#c4JNtpL4ac" opacity="1" fill="#854d28" fill-opacity="1"></use><g><use xlink:href="#c4JNtpL4ac" opacity="1" fill-opacity="0" stroke="#000000" stroke-width="1" stroke-opacity="0"></use></g></g><g><use xlink:href="#agakq4SI4" opacity="1" fill="#a66235" fill-opacity="1"></use><g><use xlink:href="#agakq4SI4" opacity="1" fill-opacity="0" stroke="#000000" stroke-width="1" stroke-opacity="0"></use></g></g><g><use xlink:href="#d5h541mho" opacity="1" fill="#ffd400" fill-opacity="1"></use><g><use xlink:href="#d5h541mho" opacity="1" fill-opacity="0" stroke="#000000" stroke-width="1" stroke-opacity="0"></use></g></g><g><use xlink:href="#a4DaYjlK4" opacity="1" fill="#854d28" fill-opacity="1"></use><g><use xlink:href="#a4DaYjlK4" opacity="1" fill-opacity="0" stroke="#000000" stroke-width="1" stroke-opacity="0"></use></g></g><g><use xlink:href="#a2galozAk" opacity="1" fill="#ffaa00" fill-opacity="1"></use><g><use xlink:href="#a2galozAk" opacity="1" fill-opacity="0" stroke="#000000" stroke-width="1" stroke-opacity="0"></use></g></g><g><use xlink:href="#fKYzsOxWN" opacity="1" fill="#feec65" fill-opacity="1"></use><g><use xlink:href="#fKYzsOxWN" opacity="1" fill-opacity="0" stroke="#000000" stroke-width="1" stroke-opacity="0"></use></g></g><g><use xlink:href="#c3AXMnfj1G" opacity="1" fill="#fcca29" fill-opacity="1"></use><g><use xlink:href="#c3AXMnfj1G" opacity="1" fill-opacity="0" stroke="#000000" stroke-width="1" stroke-opacity="0"></use></g></g><g><use xlink:href="#aBwkrqU8C" opacity="1" fill="#fcca29" fill-opacity="1"></use><g><use xlink:href="#aBwkrqU8C" opacity="1" fill-opacity="0" stroke="#000000" stroke-width="1" stroke-opacity="0"></use></g></g><g><use xlink:href="#l3wtrK8CXN" opacity="1" fill="#fcca29" fill-opacity="1"></use><g><use xlink:href="#l3wtrK8CXN" opacity="1" fill-opacity="0" stroke="#000000" stroke-width="1" stroke-opacity="0"></use></g></g><g><use xlink:href="#cIoHAHzz5" opacity="1" fill="#ffaa00" fill-opacity="1"></use><g><use xlink:href="#cIoHAHzz5" opacity="1" fill-opacity="0" stroke="#000000" stroke-width="1" stroke-opacity="0"></use></g></g><g><use xlink:href="#aUjxHWGgP" opacity="1" fill="#ffaa00" fill-opacity="1"></use><g><use xlink:href="#aUjxHWGgP" opacity="1" fill-opacity="0" stroke="#000000" stroke-width="1" stroke-opacity="0"></use></g></g><g><use xlink:href="#a3QOn3r3Bq" opacity="1" fill="#ffaa00" fill-opacity="1"></use><g><use xlink:href="#a3QOn3r3Bq" opacity="1" fill-opacity="0" stroke="#000000" stroke-width="1" stroke-opacity="0"></use></g></g><g><use xlink:href="#a5OsEEdEEg" opacity="1" fill="#fcca29" fill-opacity="1"></use><g><use xlink:href="#a5OsEEdEEg" opacity="1" fill-opacity="0" stroke="#000000" stroke-width="1" stroke-opacity="0"></use></g></g></g></g></svg>