<svg xmlns="http://www.w3.org/2000/svg" width="1240" height="1240"><path d="M588.505 1.076c-177.504 9.154-340.748 92.799-452.308 231.76C8.559 391.825-32.37 604.556 26.999 800.398c49.997 164.93 168.723 303.31 324.412 378.117 68.053 32.699 138.044 51.983 214.595 59.126 22.849 2.132 80.344 2.446 101.994.557 30.856-2.693 64.202-7.787 90.377-13.807 125.824-28.935 238.96-96.043 324.954-192.749 90.395-101.657 145.933-232.63 154.624-364.642.598-9.075 1.58-21.45 2.182-27.5 2.037-20.452-1.323-72.174-7.241-111.5C1190.812 248.381 964.337 32.185 683.5 3.539 651.626.288 619.79-.537 588.505 1.076M800 276.5V375H644v56h359v-56H847V178h-47v98.5M339.5 430.109c-18.876 2.46-44.183 11.622-59.902 21.688-40.035 25.636-65.955 70.121-68.291 117.203-.686 13.842.471 20.275 5.444 30.263 6.003 12.056 18.477 22.353 31.171 25.73 2.54.676 3.929 1.481 3.263 1.893-.637.393 32.473 8.529 73.578 18.078 41.105 9.549 75.525 17.566 76.487 17.815 1.619.42 1.75-.902 1.75-17.662V627h73.553c81.893 0 82.076-.013 93.104-6.618 13.54-8.109 23.305-22.297 25.282-36.733.979-7.145.068-23.58-1.912-34.498-1.641-9.054-7.744-27.623-12.045-36.651-16.981-35.646-49.148-63.843-86.482-75.806-22.759-7.294-19.478-7.02-87-7.27-33.55-.125-64.15.184-68 .685m63.5 35.312V485h2.532c4.058 0 8.759-2.429 12.128-6.265 10.433-11.884 4.449-28.769-11.41-32.192l-3.25-.702v19.58m68.312 25.524c-8.168 3.709-12.785 13.871-10.372 22.831 4.288 15.924 25.605 19.318 35.022 5.575 4.511-6.584 3.938-17.118-1.253-23.029-6.128-6.98-15.25-9.076-23.397-5.377M403 556.625v19.625l3.08-.616c12.035-2.407 19.321-13.675 16.003-24.75-2.215-7.393-9.952-13.884-16.551-13.884H403v19.625M.411 620c0 9.625.15 13.563.334 8.75.183-4.812.183-12.687 0-17.5-.184-4.812-.334-.875-.334 8.75M247 701.082c-2.475.485-7.721 2.469-11.658 4.409-19.937 9.824-29.163 33.58-21.558 55.509l1.907 5.5 187.613.253 187.614.252 2.118-6.752c7.552-24.079-3.679-47.95-27.059-57.513l-5.477-2.24-154.5-.15c-85.811-.083-156.501.243-159 .732" fill="undefined" fill-rule="evenodd"/></svg>